<svg width="201" height="235" viewBox="76 19 201 235" fill="none" xmlns="http://www.w3.org/2000/svg"><g
        clip-path="url(#clip0)"><path
        clip-rule="evenodd" d="M214.299 197.183l-.066.201c-8.625-2.222-13.703-.689-15.775 4.438l-11.937 29.545c-2.265 5.608-8.647 8.317-14.255 6.051l-2.352-.95c-5.607-2.266-8.316-8.648-6.051-14.255l11.959-29.6c1.71-4.233.021-8.214-5.403-12.196a55.345 55.345 0 01-2.054-1.391 37.53 37.53 0 00-.855-.523l.036-.071c-5.064-3.75-8.805-7.982-11.185-12.94-5.908-12.308-3.411-35.482 3.784-53.29 11.634-28.794 44.545-42.647 73.507-30.945 28.963 11.701 43.014 44.528 31.381 73.323-7.28 18.018-21.159 36.256-33.796 41.001-5.097 1.914-10.704 2.382-16.938 1.602z" stroke="#DC296C" stroke-width="2.738"/><path clip-rule="evenodd" d="M240.554 188.228c9.986-8.663 18.694-23.213 23.071-34.115 11.299-28.143-2.412-60.256-30.624-71.726-28.212-11.47-60.242 2.047-71.541 30.189-4.376 10.901-7.951 27.432-6.69 40.674 5.594 2.113 80.865 32.877 85.784 34.978z" stroke="#DC296C" stroke-width=".684"/><path clip-rule="evenodd" d="M187.812 166.691l20.083 8.165-22.527 56.109c-1.971 4.911-7.551 7.294-12.461 5.322l-.039-.016-2.331-.947a9.582 9.582 0 01-5.283-12.447l22.558-56.186z" stroke="#DC296C" stroke-width=".684"/><path clip-rule="evenodd" d="M187.812 166.691l20.083 8.165-1.207 3.007c-2.221 5.531-8.505 8.215-14.037 5.994a.766.766 0 00-.043-.017c-5.553-2.258-8.237-8.58-6.004-14.143l1.208-3.006z" stroke="#DC296C" stroke-width=".684"/><path d="M155.188 142.113l92.56 37.631" stroke="#DC296C" stroke-width=".684" stroke-linecap="square"/><path d="M143.266 26.967c32.378-4.55 62.306 17.951 66.847 50.258 2.318 16.5 1.026 42.966-9.056 55.281-3.929 4.8-8.926 7.993-14.574 10.246l.496-.051c-.586.164-1.154.335-1.702.513-.549.204-1.105.4-1.666.588-7.425 2.829-10.722 7.203-9.89 13.121l4.839 34.43c.736 5.241-2.915 10.086-8.155 10.822l-.213.028-2.536.298a9.582 9.582 0 01-10.609-8.182L152.14 159.4c-.681-4.848-4.211-8.181-10.59-9.999-8.946-.44-17.499-2.408-24.22-7.021-13.186-9.052-20.766-32.756-23.1-49.36-4.54-32.308 16.658-61.502 49.036-66.053z" fill="#FFE3A6"/><path d="M143.266 26.967c32.378-4.55 62.306 17.951 66.847 50.258 2.318 16.5 1.026 42.966-9.056 55.281-3.929 4.8-8.926 7.993-14.574 10.246l.496-.051c-.586.164-1.154.335-1.702.513-.549.204-1.105.4-1.666.588-7.425 2.829-10.722 7.203-9.89 13.121l4.839 34.43c.736 5.241-2.915 10.086-8.155 10.822l-.213.028-2.536.298a9.582 9.582 0 01-10.609-8.182L152.14 159.4c-.681-4.848-4.211-8.181-10.59-9.999-8.946-.44-17.499-2.408-24.22-7.021-13.186-9.052-20.766-32.756-23.1-49.36-4.54-32.308 16.658-61.502 49.036-66.053z" fill="url(#paint0_linear)"/><path d="M143.266 26.283c32.377-4.55 62.306 17.95 66.846 50.258 2.319 16.5 1.027 42.966-9.055 55.281-3.785 4.623-8.798 7.874-14.468 10.25l.39-.055c-.293.081-.581.165-.864.25a60.599 60.599 0 01-4 1.466c-6.37 2.833-9.168 7.001-8.394 12.506l4.869 34.645c.736 5.241-2.915 10.086-8.155 10.822l-3.964.557a9.58 9.58 0 01-10.822-8.155l-4.878-34.708c-.727-5.172-4.406-8.329-11.037-9.472-8.198-.166-15.942-1.743-22.404-6.179-13.186-9.052-22.135-34.125-24.469-50.73-4.54-32.307 18.027-62.186 50.405-66.736z" fill="url(#paint1_linear)"/><path d="M143.266 26.283c32.377-4.55 62.306 17.95 66.846 50.258 2.319 16.5 1.027 42.966-9.055 55.281-3.785 4.623-8.798 7.874-14.468 10.25l.39-.055c-.293.081-.581.165-.864.25a60.599 60.599 0 01-4 1.466c-6.37 2.833-9.168 7.001-8.394 12.506l4.869 34.645c.736 5.241-2.915 10.086-8.155 10.822l-3.964.557a9.58 9.58 0 01-10.822-8.155l-4.878-34.708c-.727-5.172-4.406-8.329-11.037-9.472-8.198-.166-15.942-1.743-22.404-6.179-13.186-9.052-22.135-34.125-24.469-50.73-4.54-32.307 18.027-62.186 50.405-66.736z" fill="url(#paint2_linear)"/><path fill-rule="evenodd" clip-rule="evenodd" d="M206.912 121.387c4.638-13.468 4.927-31.741 3.148-44.275-4.595-32.355-34.572-54.932-66.956-50.428-32.384 4.504-54.913 34.385-50.319 66.74 1.78 12.532 7.326 29.885 15.603 41.564 6.335-1.044 92.824-12.911 98.524-13.601z" fill="#64503A"/><path fill-rule="evenodd" clip-rule="evenodd" d="M206.869 120.708c4.663-13.503 4.96-31.82 3.176-44.385-4.606-32.434-34.715-55.059-67.252-50.533-32.536 4.525-55.178 34.487-50.573 66.92 1.784 12.564 7.35 29.959 15.662 41.664 6.365-1.049 93.26-12.972 98.987-13.666z" fill="url(#paint3_radial)"/><g filter="url(#filter0_d)"><path d="M145.993 129.765l19.566-2.738 2.528 17.564c.754 5.238-2.881 10.095-8.119 10.849a.47.47 0 01-.037.005l-.588.083a9.58 9.58 0 01-10.811-8.125l-2.539-17.638z" fill="#000"/></g><path d="M145.993 129.765l19.566-2.738 2.528 17.564c.754 5.238-2.881 10.095-8.119 10.849a.47.47 0 01-.037.005l-.588.083a9.58 9.58 0 01-10.811-8.125l-2.539-17.638z" fill="url(#paint4_linear)"/><g filter="url(#filter1_d)"><path d="M145.993 129.765l23.162-3.222 9.292 65.443a9.581 9.581 0 01-8.139 10.833l-.027.004-4.181.582c-5.231.727-10.065-2.915-10.807-8.144l-9.3-65.496z" fill="#000"/></g><path d="M145.993 129.765l23.162-3.222 9.292 65.443a9.581 9.581 0 01-8.139 10.833l-.027.004-4.181.582c-5.231.727-10.065-2.915-10.807-8.144l-9.3-65.496z" fill="url(#paint5_linear)"/><path fill-rule="evenodd" clip-rule="evenodd" d="M145.993 129.765l23.162-3.222.494 3.482c.905 6.375-3.529 12.277-9.904 13.182l-.033.005c-6.401.89-12.316-3.567-13.225-9.966l-.494-3.481z" fill="url(#paint6_linear)"/><path opacity=".1" d="M102.273 124.415l106.747-14.848" stroke="#0F3059" stroke-width=".684" stroke-linecap="square"/><path fill-rule="evenodd" clip-rule="evenodd" d="M200.127 67.614c9.477-3.488 14.539-13.597 11.305-22.58-3.234-8.983-13.539-13.438-23.016-9.95-9.478 3.487-14.539 13.596-11.305 22.58 3.234 8.982 13.538 13.437 23.016 9.95z" fill="#061D35" fill-opacity=".116"/><path d="M226.573 55.434c9.858-2.642 15.708-12.774 13.067-22.633-2.642-9.857-12.774-15.708-22.632-13.066-9.858 2.641-15.708 12.774-13.067 22.632 2.641 9.858 12.774 15.708 22.632 13.067z" fill="url(#paint7_radial)"/></g><defs><linearGradient id="paint0_linear" x1="197.411" y1="132.267" x2="120.104" y2="143.132" gradientUnits="userSpaceOnUse"><stop stop-color="#fff" stop-opacity="0"/><stop offset=".272" stop-color="#98786A" stop-opacity=".242"/><stop offset=".697" stop-color="#62331F" stop-opacity=".292"/><stop offset="1" stop-color="#4F1C06" stop-opacity="0"/></linearGradient><linearGradient id="paint1_linear" x1="157.37" y1="126.642" x2="162.32" y2="161.861" gradientUnits="userSpaceOnUse"><stop stop-color="#C38B55"/><stop offset=".147" stop-color="#E4B686"/><stop offset="1" stop-color="#E0B282"/></linearGradient><linearGradient id="paint2_linear" x1="197.181" y1="131.754" x2="118.915" y2="142.753" gradientUnits="userSpaceOnUse"><stop stop-color="#fff" stop-opacity="0"/><stop offset=".272" stop-color="#98786A" stop-opacity=".242"/><stop offset=".697" stop-color="#62331F" stop-opacity=".292"/><stop offset="1" stop-color="#4F1C06" stop-opacity="0"/></linearGradient><linearGradient id="paint4_linear" x1="167.828" y1="142.746" x2="148.205" y2="145.504" gradientUnits="userSpaceOnUse"><stop stop-color="#EECEAD"/><stop offset=".141" stop-color="#F9CB9A"/><stop offset=".369" stop-color="#F3CDA5"/><stop offset=".613" stop-color="#DEAE7E"/><stop offset=".822" stop-color="#B38254"/><stop offset="1" stop-color="#90605B"/></linearGradient><linearGradient id="paint5_linear" x1="175.364" y1="170.045" x2="152.113" y2="173.312" gradientUnits="userSpaceOnUse"><stop stop-color="#EECEAD"/><stop offset=".141" stop-color="#F9CB9A"/><stop offset=".369" stop-color="#F3CDA5"/><stop offset=".613" stop-color="#DEAE7E"/><stop offset=".822" stop-color="#B38254"/><stop offset="1" stop-color="#90605B"/></linearGradient><linearGradient id="paint6_linear" x1="157.603" y1="128.347" x2="159.693" y2="143.215" gradientUnits="userSpaceOnUse"><stop stop-color="#C59A70"/><stop offset=".2" stop-color="#DDAC7D"/><stop offset="1" stop-color="#CE8F61"/></linearGradient><radialGradient id="paint3_radial" cx="0" cy="0" r="1" gradientUnits="userSpaceOnUse" gradientTransform="matrix(40.9277 -93.0858 105.69301 46.47081 195.223 43.38)"><stop stop-color="#1958A6"/><stop offset="1" stop-color="#2081C5"/></radialGradient><radialGradient id="paint7_radial" cx="0" cy="0" r="1" gradientUnits="userSpaceOnUse" gradientTransform="matrix(-22.85402 20.0622 -18.4217 -20.98522 -132.824 133.178)"><stop stop-color="#fff"/><stop offset=".128" stop-color="#F4F6FC"/><stop offset=".588" stop-color="#DBDCE0"/><stop offset=".609" stop-color="#D3D5DA"/><stop offset=".771" stop-color="#BDBED8"/><stop offset="1" stop-color="#CDCCFC"/></radialGradient><filter id="filter0_d" x="139.833" y="124.289" width="29.037" height="35.438" filterUnits="userSpaceOnUse" color-interpolation-filters="sRGB"><feFlood flood-opacity="0" result="BackgroundImageFix"/><feColorMatrix in="SourceAlpha" values="0 0 0 0 0 0 0 0 0 0 0 0 0 0 0 0 0 0 127 0"/><feOffset dx="-2.738" dy=".684"/><feGaussianBlur stdDeviation="1.711"/><feColorMatrix values="0 0 0 0 0.604789 0 0 0 0 0.424399 0 0 0 0 0.236165 0 0 0 1 0"/><feBlend in2="BackgroundImageFix" result="effect1_dropShadow"/><feBlend in="SourceGraphic" in2="effect1_dropShadow" result="shape"/></filter><filter id="filter1_d" x="143.255" y="125.174" width="38.026" height="82.43" filterUnits="userSpaceOnUse" color-interpolation-filters="sRGB"><feFlood flood-opacity="0" result="BackgroundImageFix"/><feColorMatrix in="SourceAlpha" values="0 0 0 0 0 0 0 0 0 0 0 0 0 0 0 0 0 0 127 0"/><feOffset dy="1.369"/><feGaussianBlur stdDeviation="1.369"/><feColorMatrix values="0 0 0 0 0 0 0 0 0 0 0 0 0 0 0 0 0 0 0.235604 0"/><feBlend in2="BackgroundImageFix" result="effect1_dropShadow"/><feBlend in="SourceGraphic" in2="effect1_dropShadow" result="shape"/></filter><clipPath id="clip0"><path fill="#fff" d="M91 19h180v221.065H91z"/></clipPath></defs></svg>