<svg width="13" height="26" viewBox="0 0 13 26" fill="none" xmlns="http://www.w3.org/2000/svg">
<g opacity="0.5">
<path d="M6.5504 25C1.54359 24.9989 1.0011 20.4879 1 18.5484L1.02252 4.98167C1.02225 4.33592 1.22304 3.35149 1.78805 2.52661C2.26489 1.8302 3.17847 1 4.82104 1C4.82186 1 4.82351 1 4.82461 1C6.16503 1 7.22419 1.489 7.88836 2.41465C8.56681 3.36017 8.6396 4.47364 8.63932 4.90833L8.61845 18.5526C8.61872 19.0251 8.61955 20.009 7.98285 20.6578C7.60187 21.0458 7.05938 21.2425 6.37021 21.2425C6.36884 21.2425 6.36884 21.2425 6.36527 21.2425C5.08692 21.2425 4.3821 20.2853 4.38073 18.5465L4.37386 4.96039L4.92322 4.95983L4.93008 18.5462C4.93118 19.9639 5.41434 20.683 6.36582 20.683C6.36719 20.683 6.36857 20.683 6.36994 20.683C6.90858 20.683 7.32032 20.5414 7.59445 20.2623C8.06992 19.7775 8.06937 18.9501 8.06937 18.5526L8.09024 4.90805C8.09052 4.52878 8.02762 3.55778 7.44503 2.74522C6.88057 1.95868 5.99885 1.56009 4.82461 1.56009C4.82323 1.56009 4.82213 1.55981 4.82104 1.56009C3.69239 1.56009 2.82358 1.99311 2.23852 2.84738C1.74657 3.56534 1.5716 4.42101 1.57188 4.98251L1.54935 18.549C1.55018 20.3194 2.03938 24.4393 6.5504 24.4405C10.8139 24.4396 11.4506 20.7516 11.4506 18.5535L11.4158 7.30825L11.9651 7.30657L12 18.5526C11.9997 22.6496 10.0135 24.9994 6.5504 25Z" fill="white" stroke="white" stroke-width="0.6"/>
</g>
</svg>
