<svg fill="none" xmlns="http://www.w3.org/2000/svg"><g
        clip-path="url(#clip0)"><path clip-rule="evenodd" d="M100.845 37.449h164.31a4.546 4.546 0 014.546 4.546v124.044a4.546 4.546 0 01-4.546 4.546h-164.31a4.546 4.546 0 01-4.546-4.546V41.995a4.546 4.546 0 014.546-4.546z" stroke="#DC296C" stroke-width="2.598"/><path fill-rule="evenodd" clip-rule="evenodd" d="M183 89.404c10.223 0 18.51-8.287 18.51-18.51v-5.467l-37.019-.15v5.618c0 10.222 8.287 18.51 18.509 18.51z" fill="url(#paint0_linear)"/><path d="M183 84.858c10.223 0 18.51-8.287 18.51-18.509S193.223 47.84 183 47.84c-10.222 0-18.509 8.288-18.509 18.51 0 10.222 8.287 18.51 18.509 18.51z" fill="url(#paint1_linear)"/><path d="M183 75.116a8.767 8.767 0 100-17.535 8.767 8.767 0 00-8.767 8.768A8.767 8.767 0 00183 75.116z" fill="url(#paint2_radial)"/><path fill-rule="evenodd" clip-rule="evenodd" d="M183 113.434c10.223 0 18.51-8.287 18.51-18.51v-5.468l-37.019-.15v5.619c0 10.222 8.287 18.509 18.509 18.509z" fill="url(#paint3_linear)"/><path d="M183 108.888c10.223 0 18.51-8.287 18.51-18.51 0-10.222-8.287-18.509-18.51-18.509-10.222 0-18.509 8.287-18.509 18.51 0 10.222 8.287 18.509 18.509 18.509z" fill="url(#paint4_linear)"/><path d="M183 99.146a8.767 8.767 0 100-17.535 8.767 8.767 0 00-8.767 8.767A8.767 8.767 0 00183 99.146z" fill="url(#paint5_radial)"/><path fill-rule="evenodd" clip-rule="evenodd" d="M183 138.113c10.223 0 18.51-8.287 18.51-18.51v-5.468l-37.019-.15v5.618c0 10.223 8.287 18.51 18.509 18.51z" fill="url(#paint6_linear)"/><path d="M183 132.268c10.223 0 18.51-8.287 18.51-18.51 0-10.222-8.287-18.509-18.51-18.509-10.222 0-18.509 8.287-18.509 18.509 0 10.223 8.287 18.51 18.509 18.51z" fill="url(#paint7_linear)"/><path d="M183 122.526a8.767 8.767 0 008.768-8.768 8.767 8.767 0 00-8.768-8.767 8.767 8.767 0 00-8.767 8.767 8.767 8.767 0 008.767 8.768z" fill="url(#paint8_radial)"/><path fill-rule="evenodd" clip-rule="evenodd" d="M183 160.843c10.223 0 18.51-8.287 18.51-18.509v-5.468l-37.019-.15v5.618c0 10.222 8.287 18.509 18.509 18.509z" fill="url(#paint9_linear)"/><path d="M183 155.648c10.223 0 18.51-8.287 18.51-18.509 0-10.223-8.287-18.51-18.51-18.51-10.222 0-18.509 8.287-18.509 18.51 0 10.222 8.287 18.509 18.509 18.509z" fill="url(#paint10_linear)"/><path d="M183 145.906a8.768 8.768 0 100-17.534 8.768 8.768 0 000 17.534z" fill="url(#paint11_radial)"/><path fill-rule="evenodd" clip-rule="evenodd" d="M124.985 130.368h13.635c6.517 0 11.799 5.283 11.799 11.8v5.769c0 6.516-5.282 11.799-11.799 11.799h-13.635c-6.517 0-11.8-5.283-11.8-11.799v-5.769c0-6.517 5.283-11.8 11.8-11.8z" fill="#D8D8D8"/><path fill-rule="evenodd" clip-rule="evenodd" d="M117.145 130.39c5.128-2.212 10.253-3.318 15.374-3.318 4.701 0 9.398 1.083 14.092 3.249a6.554 6.554 0 013.808 5.952v6.559a8.443 8.443 0 01-9.571 8.367 58.63 58.63 0 00-7.851-.528c-3.396 0-6.803.235-10.223.703a8.443 8.443 0 01-9.589-8.365v-6.6a6.555 6.555 0 013.96-6.019z" fill="#B0AEAE"/><mask id="a" maskUnits="userSpaceOnUse" x="113" y="125" width="38" height="25"><path d="M117.145 128.441c5.129-2.211 10.254-3.317 15.375-3.317 4.701 0 9.398 1.083 14.091 3.248a6.556 6.556 0 013.809 5.953v8.754a6.555 6.555 0 01-7.645 6.464 58.72 58.72 0 00-9.778-.82c-4.05 0-8.116.333-12.2 1a6.555 6.555 0 01-7.611-6.47v-8.792a6.556 6.556 0 013.959-6.02z" fill="#fff"/></mask><g mask="url(#a)"><path d="M117.145 128.441c5.129-2.211 10.254-3.317 15.375-3.317 4.701 0 9.398 1.083 14.091 3.248a6.556 6.556 0 013.809 5.953v8.754a6.555 6.555 0 01-7.645 6.464 58.72 58.72 0 00-9.778-.82c-4.05 0-8.116.333-12.2 1a6.555 6.555 0 01-7.611-6.47v-8.792a6.556 6.556 0 013.959-6.02z" fill="#DC296C"/><path d="M120 151.102c-.896-6.911-4.033-12.06-9.41-15.446-3.927-2.473 2.544-6.188 19.411-11.147" stroke="#EB5A90" stroke-width="1.299"/><path d="M130.39 150.452c-.206-5.83-3.093-10.625-8.661-14.385-4.066-2.746 1.145-6.393 15.632-10.943" stroke="#EB5A90" stroke-width="1.299"/><path d="M143.379 150.452c2.611-5.195-1.248-10.824-11.577-16.885-4.171-2.448 1.607-4.891 17.334-7.33" stroke="#EB5A90" stroke-width="1.299"/><path d="M153.121 152.401c-.998-7.868-4.345-13.428-10.039-16.681-4.993-2.853.146-5.519 15.415-7.998" stroke="#EB5A90" stroke-width="1.299"/></g><path fill-rule="evenodd" clip-rule="evenodd" d="M124.985 90.102h13.635c6.517 0 11.799 5.283 11.799 11.8v5.769c0 6.516-5.282 11.799-11.799 11.799h-13.635c-6.517 0-11.8-5.283-11.8-11.799v-5.769c0-6.517 5.283-11.8 11.8-11.8z" fill="#D8D8D8"/><path fill-rule="evenodd" clip-rule="evenodd" d="M117.145 90.124c5.128-2.212 10.253-3.317 15.374-3.317 4.701 0 9.398 1.082 14.092 3.248a6.554 6.554 0 013.808 5.952v6.56a8.443 8.443 0 01-9.571 8.367 58.63 58.63 0 00-7.851-.528c-3.396 0-6.803.234-10.223.703a8.443 8.443 0 01-9.589-8.365v-6.6a6.556 6.556 0 013.96-6.02z" fill="#B0AEAE"/><mask id="b" maskUnits="userSpaceOnUse" x="113" y="84" width="38" height="26"><path d="M117.145 88.176c5.129-2.212 10.254-3.318 15.375-3.318 4.701 0 9.398 1.083 14.091 3.249a6.555 6.555 0 013.809 5.952v8.755a6.555 6.555 0 01-7.645 6.464 58.72 58.72 0 00-9.778-.82c-4.05 0-8.116.333-12.2.999a6.555 6.555 0 01-7.611-6.469v-8.793a6.555 6.555 0 013.959-6.02z" fill="#fff"/></mask><g mask="url(#b)"><path d="M117.145 88.176c5.129-2.212 10.254-3.318 15.375-3.318 4.701 0 9.398 1.083 14.091 3.249a6.555 6.555 0 013.809 5.952v8.755a6.555 6.555 0 01-7.645 6.464 58.72 58.72 0 00-9.778-.82c-4.05 0-8.116.333-12.2.999a6.555 6.555 0 01-7.611-6.469v-8.793a6.555 6.555 0 013.959-6.02z" fill="#DC296C"/><path d="M120 110.836c-.896-6.911-4.033-12.06-9.41-15.446-3.927-2.472 2.544-6.188 19.411-11.147" stroke="#EB5A90" stroke-width="1.299"/><path d="M130.39 110.187c-.206-5.831-3.093-10.626-8.661-14.386-4.066-2.746 1.145-6.393 15.632-10.943" stroke="#EB5A90" stroke-width="1.299"/><path d="M143.379 110.187c2.611-5.196-1.248-10.825-11.577-16.886-4.171-2.448 1.607-4.89 17.334-7.33" stroke="#EB5A90" stroke-width="1.299"/><path d="M153.121 112.135c-.998-7.867-4.345-13.427-10.039-16.68-4.993-2.853.146-5.519 15.415-7.999" stroke="#EB5A90" stroke-width="1.299"/></g><path fill-rule="evenodd" clip-rule="evenodd" d="M124.985 51.785h13.635c6.517 0 11.799 5.283 11.799 11.8v5.768c0 6.517-5.282 11.8-11.799 11.8h-13.635c-6.517 0-11.8-5.283-11.8-11.8v-5.768c0-6.517 5.283-11.8 11.8-11.8z" fill="#D8D8D8"/><path fill-rule="evenodd" clip-rule="evenodd" d="M117.145 51.806c5.128-2.211 10.253-3.317 15.374-3.317 4.701 0 9.398 1.083 14.092 3.249a6.554 6.554 0 013.808 5.952v6.56a8.443 8.443 0 01-9.571 8.366 58.63 58.63 0 00-7.851-.528 75.22 75.22 0 00-10.223.703 8.443 8.443 0 01-9.589-8.365v-6.6a6.556 6.556 0 013.96-6.02z" fill="#B0AEAE"/><mask id="c" maskUnits="userSpaceOnUse" x="113" y="46" width="38" height="26"><path d="M117.145 49.858c5.129-2.211 10.254-3.317 15.375-3.317 4.701 0 9.398 1.083 14.091 3.248a6.555 6.555 0 013.809 5.953v8.754a6.555 6.555 0 01-7.645 6.464 58.742 58.742 0 00-9.778-.82c-4.05 0-8.116.333-12.2 1a6.555 6.555 0 01-7.611-6.47v-8.792a6.555 6.555 0 013.959-6.02z" fill="#fff"/></mask><g mask="url(#c)"><path d="M117.145 49.858c5.129-2.211 10.254-3.317 15.375-3.317 4.701 0 9.398 1.083 14.091 3.248a6.555 6.555 0 013.809 5.953v8.754a6.555 6.555 0 01-7.645 6.464 58.742 58.742 0 00-9.778-.82c-4.05 0-8.116.333-12.2 1a6.555 6.555 0 01-7.611-6.47v-8.792a6.555 6.555 0 013.959-6.02z" fill="#DC296C"/><path d="M120 72.519c-.896-6.911-4.033-12.06-9.41-15.446-3.927-2.473 2.544-6.188 19.411-11.147" stroke="#EB5A90" stroke-width="1.299"/><path d="M130.39 71.87c-.206-5.83-3.093-10.626-8.661-14.386-4.066-2.746 1.145-6.393 15.632-10.943" stroke="#EB5A90" stroke-width="1.299"/><path d="M143.379 71.87c2.611-5.196-1.248-10.825-11.577-16.886-4.171-2.448 1.607-4.891 17.334-7.33" stroke="#EB5A90" stroke-width="1.299"/><path d="M153.121 73.817c-.998-7.867-4.345-13.427-10.039-16.68-4.993-2.853.146-5.519 15.415-7.998" stroke="#EB5A90" stroke-width="1.299"/></g><path d="M255.342 54.032a3.572 3.572 0 00-3.572-3.572h-31.823a3.572 3.572 0 00-3.572 3.572V78.71c0 1.972 1.6 3.572 3.572 3.572h31.823c1.973 0 3.572-1.6 3.572-3.572V54.03zm-35.395-2.273h31.823a2.273 2.273 0 012.273 2.273V78.71a2.273 2.273 0 01-2.273 2.273h-31.823a2.273 2.273 0 01-2.273-2.273V54.03a2.273 2.273 0 012.273-2.272z" fill="#DC296C" stroke="#DC296C" stroke-width=".649"/><path fill-rule="evenodd" clip-rule="evenodd" d="M246.2 58c.994 0 1.8.878 1.8 1.962v13.076c0 1.084-.806 1.962-1.8 1.962h-20.4c-.994 0-1.8-.878-1.8-1.962V59.962c0-1.084.806-1.962 1.8-1.962h20.4zm0 .654h-20.4c-.663 0-1.2.585-1.2 1.307V73.04c0 .722.537 1.307 1.2 1.307h20.4c.663 0 1.2-.585 1.2-1.308V59.962c0-.723-.537-1.308-1.2-1.308z" fill="#DC296C"/><path fill-rule="evenodd" clip-rule="evenodd" d="M231.787 89.523h.677c.354 0 .643.283.649.637l2.549 135.061a1.949 1.949 0 01-1.912 1.984l-.036.001H229.9a1.949 1.949 0 01-1.947-1.995l3.185-135.054a.649.649 0 01.649-.634z" fill="url(#paint12_linear)"/><path fill-rule="evenodd" clip-rule="evenodd" d="M238.042 100.926l.673-.071a.649.649 0 01.712.566l16.652 134.054a1.948 1.948 0 01-1.693 2.174l-.036.004-3.793.399a1.949 1.949 0 01-2.141-1.734l-.004-.046-10.949-134.647a.649.649 0 01.579-.699z" fill="url(#paint13_linear)"/></g><defs><linearGradient id="paint7_linear" x1="183" y1="95.249" x2="182.118" y2="127.34" gradientUnits="userSpaceOnUse"><stop stop-color="#EEE"/><stop offset=".701" stop-color="#D5D6E4"/><stop offset="1" stop-color="#BDBED9"/></linearGradient><linearGradient id="paint0_linear" x1="183" y1="65.277" x2="183" y2="83.746" gradientUnits="userSpaceOnUse"><stop stop-color="#D8D7D7"/><stop offset="1" stop-color="#9D9D9D"/></linearGradient><linearGradient id="paint13_linear" x1="258.951" y1="229.612" x2="247.834" y2="230.781" gradientUnits="userSpaceOnUse"><stop stop-color="#F8CC9D"/><stop offset="1" stop-color="#97675A"/></linearGradient><linearGradient id="paint3_linear" x1="183" y1="89.306" x2="183" y2="107.776" gradientUnits="userSpaceOnUse"><stop stop-color="#D8D7D7"/><stop offset="1" stop-color="#9D9D9D"/></linearGradient><linearGradient id="paint4_linear" x1="183" y1="71.869" x2="182.118" y2="103.96" gradientUnits="userSpaceOnUse"><stop stop-color="#EEE"/><stop offset=".701" stop-color="#D5D6E4"/><stop offset="1" stop-color="#BDBED9"/></linearGradient><linearGradient id="paint12_linear" x1="239.13" y1="219.69" x2="227.952" y2="219.69" gradientUnits="userSpaceOnUse"><stop stop-color="#F8CC9D"/><stop offset="1" stop-color="#97675A"/></linearGradient><linearGradient id="paint6_linear" x1="183" y1="113.985" x2="183" y2="132.455" gradientUnits="userSpaceOnUse"><stop stop-color="#D8D7D7"/><stop offset="1" stop-color="#9D9D9D"/></linearGradient><linearGradient id="paint1_linear" x1="183" y1="47.84" x2="182.118" y2="79.93" gradientUnits="userSpaceOnUse"><stop stop-color="#EEE"/><stop offset=".701" stop-color="#D5D6E4"/><stop offset="1" stop-color="#BDBED9"/></linearGradient><linearGradient id="paint10_linear" x1="183" y1="118.629" x2="182.118" y2="150.72" gradientUnits="userSpaceOnUse"><stop stop-color="#EEE"/><stop offset=".701" stop-color="#D5D6E4"/><stop offset="1" stop-color="#BDBED9"/></linearGradient><linearGradient id="paint9_linear" x1="183" y1="136.716" x2="183" y2="155.185" gradientUnits="userSpaceOnUse"><stop stop-color="#D8D7D7"/><stop offset="1" stop-color="#9D9D9D"/></linearGradient><radialGradient id="paint8_radial" cx="0" cy="0" r="1" gradientUnits="userSpaceOnUse" gradientTransform="translate(183 101.358) scale(21.851)"><stop stop-color="#2B88D1"/><stop offset=".512" stop-color="#2882C9"/><stop offset="1" stop-color="#1966A4"/></radialGradient><radialGradient id="paint11_radial" cx="0" cy="0" r="1" gradientUnits="userSpaceOnUse" gradientTransform="translate(183 124.738) scale(21.851)"><stop stop-color="#2B88D1"/><stop offset=".512" stop-color="#2882C9"/><stop offset="1" stop-color="#1966A4"/></radialGradient><radialGradient id="paint5_radial" cx="0" cy="0" r="1" gradientUnits="userSpaceOnUse" gradientTransform="translate(183 77.977) scale(21.851)"><stop stop-color="#2B88D1"/><stop offset=".512" stop-color="#2882C9"/><stop offset="1" stop-color="#1966A4"/></radialGradient><radialGradient id="paint2_radial" cx="0" cy="0" r="1" gradientUnits="userSpaceOnUse" gradientTransform="translate(183 53.948) scale(21.851)"><stop stop-color="#2B88D1"/><stop offset=".512" stop-color="#2882C9"/><stop offset="1" stop-color="#1966A4"/></radialGradient><clipPath id="clip0"><path fill="#fff" d="M95 36h176v202.627H95z"/></clipPath></defs></svg>