<svg width="110" height="160" viewBox="0 0 110 160" fill="none" xmlns="http://www.w3.org/2000/svg">
<path d="M110 0H0V160H110V0Z" fill="#DC296C"/>
<path fill-rule="evenodd" clip-rule="evenodd" d="M54.7939 85L21 96.9775V117.665L54.7939 105.688L88.5889 117.665V96.9775L54.7939 85Z" fill="white"/>
<path d="M24.1115 131L21 138.687H22.6286L23.2922 136.974H26.3623L27.0258 138.687H28.6959L25.5844 131H24.1115ZM23.8616 135.489L24.8267 133.015L25.7917 135.489H23.8616Z" fill="white"/>
<path fill-rule="evenodd" clip-rule="evenodd" d="M38.9846 135.732L35.5064 131H34V138.687H35.6119V133.798L39.2082 138.687H40.5965V131H38.9846V135.732Z" fill="white"/>
<path d="M49.1109 131L46 138.687H47.6289L48.2925 136.974H51.3619L52.0267 138.687H53.6959L50.585 131H49.1109ZM48.8631 135.489L49.8261 133.015L50.7913 135.489H48.8631Z" fill="white"/>
<path d="M60.7919 131H58V138.687H60.7919C63.0419 138.687 64.5965 137.006 64.5965 134.842C64.5965 132.659 63.0419 131 60.7919 131ZM60.7919 137.159H59.5734V132.525H60.7919C62.0811 132.525 62.9501 133.481 62.9501 134.842C62.9501 136.226 62.0811 137.159 60.7919 137.159Z" fill="white"/>
<path fill-rule="evenodd" clip-rule="evenodd" d="M71.5782 135.568H74.9799V134.065H71.5782V132.505H75.4447V131H70V138.687H75.4971V137.183H71.5782V135.568Z" fill="white"/>
<path d="M85.585 131H84.1131L81 138.687H82.6277L83.2936 136.974H86.3619L87.0278 138.687H88.6959L85.585 131ZM83.8631 135.489L84.8261 133.015L85.7902 135.489H83.8631Z" fill="white"/>
</svg>
